<svg width="330" height="80" viewBox="0 0 330 80" fill="none" xmlns="http://www.w3.org/2000/svg">
<path d="M132.371 20.1447H114.712V69.9979H102.882V20.1447H85.2222V10.0053H132.371V20.1447Z" fill="#0072CE"/>
<path d="M166.817 40.8462V69.9978H156.931V65.5196C154.227 69.2371 149.496 71.4342 142.989 71.4342C134.117 71.4342 127.527 67.2939 127.527 59.0977C127.527 49.972 134.709 45.9161 146.2 43.8884L156.34 42.0292V41.0156C156.34 36.8753 153.298 34.4248 148.228 34.4248C145.87 34.3221 143.529 34.8779 141.468 36.0302C139.062 37.5967 136.825 39.409 134.793 41.4379L127.864 35.1005C130.236 32.0143 133.299 29.5274 136.806 27.8398C140.313 26.1522 144.168 25.3109 148.059 25.3835C160.142 25.3835 166.817 31.4675 166.817 40.8462ZM156.34 52.4225V49.8875L149.073 51.4084C141.722 53.0137 138.258 54.6196 138.258 58.3371C138.258 61.041 140.708 62.6468 144.848 62.6468C151.185 62.6468 156.34 59.4356 156.34 52.4225V52.4225Z" fill="#0072CE"/>
<path d="M187.99 69.9978H177.005V10.0053H187.99V69.9978Z" fill="#0072CE"/>
<path d="M209.661 69.9978H198.677V10.0053H209.661V69.9978Z" fill="#0072CE"/>
<path d="M231.333 20.3136H220.349V10.0053H231.333V20.3136ZM231.333 69.9978H220.349V26.8199H231.333V69.9978Z" fill="#0072CE"/>
<path d="M280.719 40.4239V69.9978H269.735V43.7195C269.735 37.9733 266.862 34.8471 261.708 34.8471C260.522 34.8228 259.344 35.0455 258.249 35.5011C257.154 35.9567 256.165 36.6353 255.347 37.4937C254.528 38.352 253.897 39.3714 253.494 40.4869C253.091 41.6023 252.924 42.7895 253.005 43.9729V69.9978H242.02V26.8199H252.244V31.7209C253.704 29.6549 255.663 27.9909 257.937 26.8831C260.212 25.7752 262.73 25.2595 265.257 25.3835C275.058 25.3835 280.719 31.3826 280.719 40.4239Z" fill="#0072CE"/>
<path d="M329.606 40.4239V69.9978H318.622V43.7195C318.622 37.9733 315.749 34.8471 310.594 34.8471C309.409 34.8227 308.231 35.0454 307.135 35.501C306.04 35.9566 305.052 36.6352 304.233 37.4936C303.415 38.3519 302.784 39.3713 302.38 40.4868C301.977 41.6023 301.811 42.7895 301.891 43.9729V69.9978H290.906V26.8199H301.131V31.7209C302.591 29.6549 304.549 27.9909 306.824 26.8831C309.099 25.7752 311.616 25.2595 314.143 25.3835C323.945 25.3835 329.606 31.3826 329.606 40.4239Z" fill="#0072CE"/>
<path d="M42.4201 31.3912C35.682 29.5541 32.3129 27.2576 24.5795 25.8797C16.6928 24.4253 9.34218 24.8846 0.000732422 25.8797V35.2186C10.6439 33.6111 25.9577 31.3912 37.6728 33.5345C47.2439 35.2952 48.0862 38.8164 56.8151 40.7301V33.4581C51.9586 33.2645 47.1348 32.5719 42.4201 31.3912Z" fill="#0072CE"/>
<path d="M56.815 45.3232C50.1535 40.7302 43.9514 40.5006 37.5962 40.5772C24.8091 40.8068 15.1614 42.4143 0.000678275 44.9405V52.4105C-0.00559621 53.2069 0.0316657 54.003 0.112297 54.7953C11.1667 52.8158 20.6114 51.445 24.6561 50.8347C36.218 48.9976 48.1628 47.1604 56.8151 48.6148L56.815 45.3232Z" fill="#0072CE"/>
<path d="M2.70642 62.7726C3.25046 63.7248 3.86252 64.6365 4.53785 65.5005C10.8504 73.4898 27.8152 79.8024 28.4077 80C28.9996 79.8027 45.9649 73.49 52.2777 65.5005C53.5678 63.86 54.6168 62.0434 55.3925 60.1059C55.9271 58.7163 56.3218 57.2769 56.5707 55.809C56.6346 55.4027 56.6817 55.0204 56.7166 54.6652C55.0587 54.8841 4.10308 62.5662 2.70642 62.7726Z" fill="#0072CE"/>
<path d="M23.8903 15.6221C16.6928 14.8566 11.4096 13.096 0.000732422 11.4119V17.689C6.87714 17.4119 13.7535 18.2389 20.3681 20.1385C22.5886 20.7509 26.9531 22.0522 28.6376 22.5115C37.5197 24.961 49.541 24.961 56.8151 25.8031V18.4544C46.4783 16.6173 31.7004 16.4641 23.8903 15.6221Z" fill="#0072CE"/>
<path d="M28.4081 0.00609832H28.4076C18.8379 -0.0928664 9.29382 1.01304 0.000366211 3.29774V6.20658L56.8147 11.1057V3.29774C47.5214 1.01308 37.9776 -0.0928203 28.4081 0.00609832Z" fill="#0072CE"/>
</svg>
