<?xml version="1.0" encoding="utf-8"?>
<!-- Generator: Adobe Illustrator 12.0.0, SVG Export Plug-In  -->
<!DOCTYPE svg PUBLIC "-//W3C//DTD SVG 1.1//EN" "http://www.w3.org/Graphics/SVG/1.1/DTD/svg11.dtd" [
	<!ENTITY ns_flows "http://ns.adobe.com/Flows/1.0/">
	<!ENTITY ns_svg "http://www.w3.org/2000/svg">
	<!ENTITY ns_xlink "http://www.w3.org/1999/xlink">
]>
<svg  version="1.1" xmlns="&ns_svg;" xmlns:xlink="&ns_xlink;" xmlns:a="http://ns.adobe.com/AdobeSVGViewerExtensions/3.0/"
	 width="152" height="25" viewBox="-0.408 -0.587 152 25" enable-background="new -0.408 -0.587 152 25" xml:space="preserve">
<defs>
</defs>
<path fill="#00AAAD" d="M0.466,23.015v-4.54c2.584,0.813,4.87,1.22,6.859,1.22c2.746,0,4.119-0.725,4.119-2.176
	c0-0.541-0.2-0.995-0.601-1.363c-0.409-0.391-1.458-0.932-3.144-1.625c-3.025-1.243-4.998-2.304-5.915-3.182
	C0.595,10.19,0,8.73,0,6.966c0-2.273,0.867-4.005,2.598-5.195C4.31,0.591,6.54,0,9.29,0c1.516,0,3.709,0.279,6.578,0.838v4.367
	c-2.134-0.853-4.116-1.278-5.947-1.278c-2.578,0-3.866,0.708-3.866,2.127c0,0.53,0.259,0.963,0.779,1.299
	c0.432,0.271,1.624,0.844,3.572,1.721c2.804,1.246,4.671,2.329,5.602,3.249c1.104,1.094,1.657,2.506,1.657,4.239
	c0,2.491-1.083,4.39-3.248,5.699c-1.754,1.062-4.029,1.59-6.822,1.59C5.236,23.851,2.859,23.573,0.466,23.015"/>
<polygon fill="#00AAAD" points="21.291,0.4 21.291,0.4 27.71,0.4 27.71,23.387 21.291,23.387 "/>
<polygon fill="#00AAAD" points="33.599,23.387 33.599,0.4 50.066,0.4 50.066,4.559 39.787,4.559 39.787,9.748 48.734,9.748 
	48.734,13.54 39.787,13.54 39.787,18.995 50.331,18.995 50.331,23.387 "/>
<polygon fill="#00AAAD" points="54.522,23.387 54.522,0.4 62.847,0.4 68.63,15.086 74.558,0.4 82.465,0.4 82.465,23.387 
	76.378,23.387 76.378,7.111 69.637,23.62 65.657,23.62 59.046,7.111 59.046,23.387 "/>
<polygon fill="#00AAAD" points="88.355,23.387 88.355,0.4 104.822,0.4 104.822,4.559 94.543,4.559 94.543,9.748 103.491,9.748 
	103.491,13.54 94.543,13.54 94.543,18.995 105.088,18.995 105.088,23.387 "/>
<polygon fill="#00AAAD" points="109.313,23.387 109.313,0.4 116.754,0.4 124.648,15.788 124.648,0.4 129.171,0.4 129.171,23.387 
	121.941,23.387 113.837,7.792 113.837,23.387 "/>
<path fill="#00AAAD" d="M133.729,23.015v-4.54c2.563,0.813,4.849,1.22,6.86,1.22c2.746,0,4.118-0.725,4.118-2.176
	c0-0.541-0.195-0.995-0.582-1.363c-0.412-0.391-1.465-0.932-3.162-1.625c-3.015-1.233-4.99-2.294-5.916-3.182
	c-1.188-1.147-1.781-2.613-1.781-4.399c0-2.262,0.863-3.988,2.598-5.179C137.572,0.591,139.805,0,142.557,0
	c1.547,0,3.551,0.246,6.008,0.739l0.567,0.099v4.367c-2.135-0.853-4.122-1.278-5.962-1.278c-2.568,0-3.85,0.708-3.85,2.127
	c0,0.53,0.259,0.963,0.777,1.299c0.412,0.261,1.608,0.834,3.588,1.721c2.785,1.246,4.647,2.329,5.586,3.249
	c1.105,1.094,1.658,2.506,1.658,4.239c0,2.491-1.078,4.39-3.231,5.699c-1.765,1.062-4.046,1.59-6.837,1.59
	C138.499,23.851,136.121,23.573,133.729,23.015"/>
</svg>
