<svg version="1.1" id="Layer_1" xmlns="http://www.w3.org/2000/svg" xmlns:xlink="http://www.w3.org/1999/xlink" x="0" y="0" viewBox="0 0 244.57 30" xml:space="preserve"><style type="text/css">.st0,.st1{clip-path:url(#SVGID_2_)}.st1{fill:#0086cc}</style><defs><path id="SVGID_1_" d="M0 0h244.57v30H0z"/></defs><clipPath id="SVGID_2_"><use xlink:href="#SVGID_1_" overflow="visible"/></clipPath><path class="st0" d="M183.6 7.08c-3.24 0-6.09 1.94-6.09 4.96 0 2.04 1.02 3.42 2.75 4.3l2.71 1.41c1.37.74 2.29 1.27 2.29 2.5 0 1.3-.99 2.01-2.43 2.01-2.64 0-4.47-1.73-4.72-4.68h-.77l.04 4.33c1.13.77 3.27 1.41 5.42 1.41 3.52 0 6.44-2.18 6.44-5.49 0-2.18-1.27-3.56-3.27-4.61l-2.5-1.37c-.99-.53-1.73-.99-1.73-1.97 0-1.02.77-1.76 2.04-1.76 2.54 0 3.52 1.76 3.66 3.98h.77l.14-3.87c-1.02-.62-2.92-1.15-4.75-1.15m-14.15 15.88h7.11v-.74c-1.41 0-1.55-.35-1.55-2.08V7.43h-7.11v.74c1.41 0 1.55.35 1.55 2.08v9.33c-.46.92-1.13 1.34-1.83 1.34-1.34 0-2.11-.92-2.11-3.27V7.43h-7.11v.74c1.41 0 1.55.35 1.55 2.08v7.96c0 2.82 1.65 5.11 4.89 5.11 2.15 0 3.84-1.3 4.61-2.78v2.42zm-17.87-12.71v9.89c0 1.73-.14 2.08-1.55 2.08v.74h8.66v-.74c-1.37 0-1.55-.35-1.55-2.08V7.43h-7.11v.74c1.41 0 1.55.35 1.55 2.08m-.24-7.33c0 1.62 1.34 2.89 2.99 2.89 1.65 0 3.03-1.27 3.03-2.89 0-1.69-1.37-2.92-3.03-2.92-1.65 0-2.99 1.23-2.99 2.92m-11.51 19.3c-1.37 0-1.55-.35-1.55-2.08v-9.15c.42-.95 1.16-1.41 1.9-1.41 1.34 0 2.29.92 2.29 3.27v7.29c0 1.73-.14 2.08-1.55 2.08v.74h8.66v-.74c-1.41 0-1.55-.35-1.55-2.08v-7.96c0-2.82-1.76-5.11-5-5.11-2.22 0-4.05 1.51-4.75 3.03V7.43h-7.11v.74c1.41 0 1.55.35 1.55 2.08v9.89c0 1.73-.14 2.08-1.55 2.08v.74h8.66v-.74zm-8.79-3.03l-.53-.42c-.95 1.34-2.04 1.94-3.45 1.94-2.89 0-5.25-2.85-5.35-7.29h9.15c-.04-2.96-2.36-6.34-6.48-6.34-4.15 0-7.99 3.7-7.99 8.49 0 4.61 3.59 7.75 7.99 7.75 2.68-.01 5.18-1.42 6.66-4.13m-6.83-11.06c1.48 0 2.36 1.73 2.43 4.3h-4.93c.14-2.92 1.02-4.3 2.5-4.3m-8.1 11.06l-.53-.42c-.95 1.34-2.04 1.94-3.45 1.94-2.89 0-5.25-2.85-5.35-7.29h9.15c-.04-2.96-2.36-6.34-6.48-6.34-4.15 0-7.99 3.7-7.99 8.49 0 4.61 3.59 7.75 7.99 7.75 2.68-.01 5.18-1.42 6.66-4.13m-6.83-11.06c1.48 0 2.36 1.73 2.43 4.3h-4.93c.14-2.92 1.02-4.3 2.5-4.3M96.3 25.07c1.58.35 2.18.81 2.18 1.76 0 1.51-2.22 2.22-4.96 2.22-2.99 0-5.04-1.13-5.04-3.17 0-1.2.63-2.01 1.8-2.22l6.02 1.41zm5.85-.92c0-2.39-1.69-3.66-5.18-4.26l-4.93-.92c-.53-.07-.92-.28-.92-.67 0-.35.25-.63.99-.77.35.04.7.07 1.09.07 3.87 0 6.97-2.22 6.97-5.32 0-1.23-.53-2.32-1.37-3.2l3.06.07.74-1.9c-1.76.18-3.87.21-6.69.21-.81-.25-1.76-.39-2.71-.39-3.87 0-6.94 2.18-6.94 5.21 0 2.54 2.04 4.47 4.86 5.11-1.83.49-3.2 1.65-3.2 3.42 0 1.23.77 2.18 1.69 2.54-2.64.07-4.61 1.05-4.61 2.78 0 2.64 4.12 3.87 8.63 3.87 4.22 0 8.52-2.32 8.52-5.85m-6.9-11.86c0 2.61-.88 4.4-2.04 4.4s-2.01-1.8-2.01-4.4c0-2.57.85-4.33 2.01-4.33s2.04 1.76 2.04 4.33"/><path class="st1" d="M80.22 15.18c0 4.82-1.02 7.15-2.64 7.15s-2.64-2.32-2.64-7.15c0-4.79 1.02-7.15 2.64-7.15s2.64 2.36 2.64 7.15m5.57 0c0-4.82-4.01-8.1-8.2-8.1s-8.24 3.27-8.24 8.1c0 4.86 4.05 8.13 8.24 8.13s8.2-3.27 8.2-8.13M57.81 7.96v.6h1.48l-.11 9.86c0 2.89 2.08 4.89 4.96 4.89 2.43 0 4.4-1.37 5.6-3.45l-.53-.42c-.74.95-1.3 1.51-2.36 1.51-1.37 0-2.08-1.13-2.08-2.82V8.59H69l.21-1.23c-1.02.11-3.31.14-4.44.14V2.54h-.32c-1.26 1.72-4.39 4.36-6.64 5.42m-7.02 15h7.11v-.74c-1.41 0-1.55-.35-1.55-2.08V7.43h-7.11v.74c1.41 0 1.55.35 1.55 2.08v9.33c-.46.92-1.13 1.34-1.83 1.34-1.34 0-2.11-.92-2.11-3.27V7.43h-7.11v.74c1.41 0 1.55.35 1.55 2.08v7.96c0 2.82 1.65 5.11 4.89 5.11 2.15 0 3.84-1.3 4.61-2.78v2.42zm-18.06-8.28v5.49c-.46.46-.95.6-1.37.6-1.13 0-1.94-1.09-1.94-2.5 0-1.8.77-2.5 2.15-3.13l1.16-.46zm-.77-7.6c-3.03 0-5.35.92-6.51 1.58v4.08h.77c.28-2.36 1.51-4.4 3.87-4.4 2.08 0 2.64 1.41 2.64 3.49v1.83l-2.99 1.2c-3.06 1.23-5.21 2.29-5.21 4.86 0 2.18 1.73 3.59 3.91 3.59 1.87 0 3.52-1.16 4.33-2.54.63 1.83 2.25 2.54 3.91 2.54 1.94 0 3.35-1.09 4.01-2.18l-.49-.53c-.39.49-.6.67-.99.67-.56 0-.92-.46-.92-1.23V13c0-3.6-2.18-5.92-6.33-5.92"/><path class="st0" d="M0 18.87c0 1.73 1.37 3.1 3.1 3.1s3.06-1.37 3.06-3.1-1.34-3.1-3.06-3.1S0 17.15 0 18.87"/><path class="st0" d="M1.54 21.97c0 .86.69 1.55 1.55 1.55s1.53-.69 1.53-1.55c0-.86-.67-1.55-1.53-1.55s-1.55.69-1.55 1.55M7.7 9.58c0 1.73 1.37 3.1 3.1 3.1s3.06-1.37 3.06-3.1-1.34-3.1-3.06-3.1-3.1 1.37-3.1 3.1"/><path class="st0" d="M9.24 12.68c0 .86.69 1.55 1.55 1.55s1.53-.69 1.53-1.55c0-.86-.67-1.55-1.53-1.55s-1.55.68-1.55 1.55M7.7 18.87c0 1.73 1.37 3.1 3.1 3.1s3.06-1.37 3.06-3.1-1.34-3.1-3.06-3.1a3.09 3.09 0 00-3.1 3.1"/><path class="st0" d="M9.24 21.97c0 .86.69 1.55 1.55 1.55s1.53-.69 1.53-1.55c0-.86-.67-1.55-1.53-1.55s-1.55.69-1.55 1.55M15.4 9.58c0 1.73 1.37 3.1 3.1 3.1s3.06-1.37 3.06-3.1-1.34-3.1-3.06-3.1-3.1 1.37-3.1 3.1"/><path class="st0" d="M16.95 12.68c0 .86.69 1.55 1.55 1.55.86 0 1.53-.69 1.53-1.55 0-.86-.67-1.55-1.53-1.55-.87 0-1.55.68-1.55 1.55"/><path class="st1" d="M0 9.58c0 1.73 1.37 3.1 3.1 3.1s3.06-1.37 3.06-3.1-1.34-3.1-3.06-3.1S0 7.85 0 9.58"/><path class="st1" d="M1.54 12.68c0 .86.69 1.55 1.55 1.55s1.53-.69 1.53-1.55c0-.86-.67-1.55-1.53-1.55s-1.55.68-1.55 1.55"/><path class="st0" d="M15.4 18.87c0 1.73 1.37 3.1 3.1 3.1s3.06-1.37 3.06-3.1-1.34-3.1-3.06-3.1a3.09 3.09 0 00-3.1 3.1"/><path class="st0" d="M16.95 21.97c0 .86.69 1.55 1.55 1.55.86 0 1.53-.69 1.53-1.55 0-.86-.67-1.55-1.53-1.55-.87 0-1.55.69-1.55 1.55"/><path d="M219.98 30c8.28 0 15-6.72 15-15 0-8.28-6.71-15-15-15s-15 6.72-15 15c.01 8.28 6.72 15 15 15" clip-path="url(#SVGID_2_)" fill="#fff200"/><path class="st0" d="M241.45 21.31h3.12v-.73h-2.31V16.5h-.81v4.81zm-2.94-3.81l.66 1.78h-1.31l.65-1.78zm-.38-.99l-1.85 4.8h.82l.49-1.33h1.84l.49 1.33h.83l-1.85-4.8h-.77zm-4.4.99l.66 1.78h-1.31l.65-1.78zm-.39-.99l-1.85 4.8h.82l.49-1.33h1.84l.49 1.33h.83l-1.85-4.8h-.77zm-5.77.72h1.6v4.08h.81v-4.08h1.6v-.72h-4.01v.72zm-3.16-.02h1.03c.54 0 .85.29.85.74s-.31.74-.85.74h-1.03v-1.48zm.58 2.16l1.34 1.95h.92l-1.39-1.98c.76-.12 1.23-.58 1.23-1.38 0-.94-.64-1.44-1.63-1.44h-1.85v4.8h.81v-1.95h.57zm-3.02-.46c0 1.02-.56 1.75-1.4 1.75-.85 0-1.39-.74-1.39-1.75 0-1.02.55-1.75 1.39-1.75.85 0 1.4.73 1.4 1.75m.82 0c0-1.44-.92-2.48-2.22-2.48-1.3 0-2.21 1.04-2.21 2.48 0 1.43.91 2.48 2.21 2.48 1.3 0 2.22-1.05 2.22-2.48m-5.75-.89c0 .46-.29.8-.85.8h-1.03v-1.61h1.03c.56 0 .85.33.85.81m-.83 1.5c.99 0 1.64-.52 1.64-1.5 0-.99-.65-1.51-1.64-1.51h-1.85v4.8h.81v-1.79h1.04zm-3.49-.61c0 1.02-.56 1.75-1.4 1.75-.85 0-1.39-.74-1.39-1.75 0-1.02.55-1.75 1.39-1.75.85 0 1.4.73 1.4 1.75m.82 0c0-1.44-.92-2.48-2.22-2.48-1.3 0-2.21 1.04-2.21 2.48 0 1.43.91 2.48 2.21 2.48 1.3 0 2.22-1.05 2.22-2.48m-8.67-1.68h1.6v4.08h.81v-4.08h1.6v-.72h-4.01v.72zm-2.62 4.16c1.15 0 1.92-.67 1.92-1.99v-2.9h-.81v2.8c0 .92-.39 1.35-1.11 1.35-.72 0-1.11-.43-1.11-1.35v-2.8h-.81v2.89c0 1.33.78 2 1.92 2m-4.62-3.89l.66 1.78h-1.31l.65-1.78zm-.38-.99l-1.85 4.8h.82l.49-1.33h1.84l.49 1.33h.83l-1.85-4.8h-.77zm42.61-4.05l1.47-2.33v3.36h.8v-4.8h-.73l-1.55 2.5-1.56-2.5h-.76v4.8h.8v-3.36l1.5 2.33h.03zm-3.39-3.77h-.81v4.8h.81v-4.8zm-4.35.7h1.03c.54 0 .85.29.85.74s-.31.74-.85.74h-1.03V9.39zm.58 2.15l1.34 1.95h.92l-1.39-1.98c.76-.12 1.23-.58 1.23-1.38 0-.94-.64-1.44-1.63-1.44h-1.85v4.8h.81v-1.95h.57zm-4.3 2.03c1.15 0 1.92-.67 1.92-1.99v-2.9h-.81v2.8c0 .92-.39 1.35-1.11 1.35-.72 0-1.11-.43-1.11-1.35v-2.8h-.81v2.89c0 1.33.78 2 1.92 2m-4.76 0c1.15 0 1.92-.67 1.92-1.99v-2.9h-.81v2.8c0 .92-.39 1.35-1.11 1.35-.72 0-1.11-.43-1.11-1.35v-2.8h-.81v2.89c0 1.33.78 2 1.92 2m-5.92-.42c.34.23.88.42 1.52.42.98 0 1.72-.48 1.72-1.36 0-.7-.34-1.12-1.1-1.39l-.77-.28c-.4-.14-.63-.28-.63-.63 0-.39.36-.58.85-.58.56 0 1 .21 1.4.52V9c-.38-.25-.88-.39-1.42-.39-.88 0-1.62.46-1.62 1.31 0 .79.48 1.13 1.13 1.37l.7.25c.43.16.67.31.67.69 0 .43-.38.63-.93.63-.56 0-1.09-.2-1.52-.56v.85zm-2.6-4.46h-.81v4.8h.81v-4.8zm-5.58.71h1.6v4.08h.81V9.4h1.6v-.71h-4.01v.71zm-3.71 3.75c.34.23.88.42 1.52.42.98 0 1.72-.48 1.72-1.36 0-.7-.34-1.12-1.09-1.39l-.78-.28c-.4-.14-.63-.28-.63-.63 0-.39.36-.58.85-.58.56 0 1 .21 1.4.52V9c-.38-.25-.88-.39-1.42-.39-.88 0-1.62.46-1.62 1.31 0 .79.48 1.13 1.13 1.37l.7.25c.43.16.67.31.67.69 0 .43-.38.63-.93.63-.56 0-1.09-.2-1.52-.56v.85zm-3.82-4.46v4.8h3.14v-.73h-2.34v-1.38h2.12v-.71h-2.12V9.4h2.34v-.71h-3.14zm-4.02 0v4.8h3.14v-.73h-2.34v-1.38h2.12v-.71h-2.12V9.4h2.34v-.71h-3.14z"/></svg>