<?xml version="1.0" encoding="UTF-8"?>
<!DOCTYPE svg PUBLIC "-//W3C//DTD SVG 1.0//EN" "http://www.w3.org/TR/2001/REC-SVG-20010904/DTD/svg10.dtd">
<!-- Creator: CorelDRAW X8 -->
<svg xmlns="http://www.w3.org/2000/svg" xml:space="preserve" width="6929px" height="2386px" version="1.0" style="shape-rendering:geometricPrecision; text-rendering:geometricPrecision; image-rendering:optimizeQuality; fill-rule:evenodd; clip-rule:evenodd"
viewBox="0 0 7060 2431"
 xmlns:xlink="http://www.w3.org/1999/xlink">
 <defs>
  <style type="text/css">
   <![CDATA[
    .fil0 {fill:#093697;fill-rule:nonzero}
   ]]>
  </style>
 </defs>
 <g id="Layer_x0020_1">
  <metadata id="CorelCorpID_0Corel-Layer"/>
  <g id="_1607524478768">
   <path class="fil0" d="M683 1187l-282 1 0 -170 282 0c108,0 157,9 157,85 1,78 -52,84 -157,84zm-282 -532l267 0c96,0 140,2 141,73 0,65 -44,72 -141,72l-267 0 0 -145zm690 239c89,-46 135,-123 135,-225 0,-197 -128,-255 -395,-253l-831 0 0 1030 886 -2c256,0 384,-98 384,-295 -2,-127 -60,-214 -179,-255z"/>
   <path class="fil0" d="M1824 414l-401 1 1 539c0,358 194,519 612,519 418,-1 608,-158 608,-521l-1 -539 -401 1 1 503c0,193 -44,276 -208,276 -165,0 -210,-83 -210,-276l-1 -503z"/>
   <path class="fil0" d="M3491 855l-233 2 -2 -185 227 0c114,0 171,10 171,88 0,77 -55,95 -163,95zm564 315c-6,-119 -18,-177 -129,-221 108,-43 172,-141 172,-264 0,-99 -43,-177 -120,-222 -66,-40 -180,-51 -341,-51l-786 1 2 1029 405 0 0 -314 239 0c96,0 133,24 142,101 11,90 -4,163 29,213l443 -1 0 -15c-49,-25 -49,-108 -56,-256z"/>
   <path class="fil0" d="M4885 1202c-171,1 -266,-97 -266,-277 0,-180 94,-278 265,-278 173,0 266,97 266,277 0,181 -93,278 -265,278zm-1 -819c-460,2 -693,185 -693,542 0,357 235,543 694,543 461,0 696,-188 696,-544 0,-357 -236,-541 -697,-541z"/>
   <path class="fil0" d="M1729 147c0,-81 65,-147 146,-147 83,0 149,66 149,147 0,82 -66,148 -149,148 -80,0 -146,-65 -146,-148z"/>
   <path class="fil0" d="M2102 147c0,-81 68,-147 148,-147 81,0 149,66 149,146 0,83 -68,149 -148,149 -81,0 -149,-66 -149,-148z"/>
   <path class="fil0" d="M6364 1201c-172,0 -265,-97 -265,-277 0,-180 93,-279 265,-279 171,0 264,97 266,278 0,180 -94,278 -266,278zm0 -819c-461,0 -695,185 -694,542 0,356 234,543 695,543 460,-2 696,-188 695,-544 0,-357 -236,-541 -696,-541z"/>
   <polygon class="fil0" points="1,2431 238,2431 237,1916 392,2431 593,2431 749,1915 749,2431 986,2430 986,1772 611,1772 492,2172 380,1772 0,1773 "/>
   <path class="fil0" d="M3108 2202l81 -234 81 234 -162 0zm251 -433l-325 1 -283 659 273 -1 24 -64 280 0 21 64 274 0 -264 -659z"/>
   <polygon class="fil0" points="4091,2428 4348,2428 4347,1769 4091,1770 "/>
   <polygon class="fil0" points="4915,2428 5571,2428 5571,2246 5169,2246 5169,1769 4914,1770 "/>
   <polygon class="fil0" points="6074,2429 6311,2429 6311,1913 6465,2429 6666,2429 6822,1913 6822,2428 7060,2428 7059,1769 6685,1770 6565,2170 6452,1770 6073,1770 "/>
   <path class="fil0" d="M1812 2203l81 -233 81 233 -162 0zm252 -432l-325 0 -284 659 273 0 24 -65 280 0 22 64 273 0 -263 -658z"/>
  </g>
 </g>
</svg>
