<svg width="172" height="32" viewBox="0 0 172 32" fill="none" xmlns="http://www.w3.org/2000/svg">
<path fill-rule="evenodd" clip-rule="evenodd" d="M24.0408 2.5151C23.3651 0.493008 19.7386 -0.117605 16.674 0.0180143C13.631 0.152327 10.8559 0.88049 11.0289 1.43842C11.2101 2.0199 12.7433 1.98061 13.6777 1.95666C13.8378 1.95255 13.9804 1.9489 14.0955 1.9489C16.9936 1.9489 19.7845 2.48071 20.4513 3.24631C21.4908 4.44207 19.7007 7.39151 14.1952 11.4124C13.139 12.1841 12.3507 12.8942 12.1764 13.2425C12.0823 13.4282 12.127 13.6977 12.416 13.7351C12.7189 13.7747 13.4457 13.6152 14.6443 13.0337C19.5353 10.6616 25.1479 5.82917 24.0408 2.5151ZM29.7651 10.9516L29.6809 10.9379C26.9754 10.4955 22.1352 10.3216 20.4805 12.8574C19.2598 14.7292 21.4075 17.2603 23.5186 19.7481C23.6184 19.8658 23.7181 19.9834 23.8175 20.1008C24.005 20.3224 24.1942 20.5429 24.3818 20.7615L24.3822 20.7619C25.9583 22.5983 27.4164 24.2974 26.7157 25.3357C26.1654 26.1534 23.048 26.2655 21.2911 26.3287C21.0078 26.3389 20.7598 26.3478 20.5637 26.3582C20.0934 26.3834 19.5666 26.4022 19.0407 26.4209H19.0407C17.6475 26.4705 16.2606 26.5199 15.9472 26.6888C15.5597 26.8976 15.344 27.5461 16.796 27.8051C17.9617 28.0143 20.7367 28.439 23.6662 28.4369C26.724 28.4362 29.936 27.9355 30.6328 25.568C31.1381 23.8514 29.6056 22.0236 28.0471 20.1647L28.047 20.1646L28.0468 20.1644L28.0467 20.1642L28.0465 20.164L28.0464 20.1638L28.0462 20.1637L28.0461 20.1635L28.0459 20.1633L28.0458 20.1631L28.0457 20.163L28.0455 20.1628L28.0454 20.1626L28.0452 20.1624L28.0451 20.1622C27.8779 19.9628 27.7104 19.7631 27.5451 19.5631C27.1215 19.05 26.6967 18.5703 26.2948 18.1165L26.2947 18.1163C24.9241 16.5687 23.8207 15.3228 23.9439 14.0832C24.0663 12.8381 26.5113 12.766 30.5662 12.695C31.4121 12.6794 33.0907 12.6389 32.767 11.9723C32.4836 11.3951 31.2679 11.1968 29.7651 10.9516ZM53.5816 21.6119C54.2516 17.5586 56.9947 14.1607 62.1036 14.1607C67.2114 14.1607 68.8419 17.5586 68.1758 21.6119C67.5072 25.6696 64.7596 29.0605 59.6579 29.0605C54.5475 29.0605 52.9233 25.6696 53.5816 21.6119ZM65.0166 21.6119C64.4765 24.9299 62.9529 26.6122 60.0546 26.6122C57.1596 26.6122 56.1935 24.9299 56.741 21.6119C57.2824 18.2954 58.8001 16.6112 61.7023 16.6112C64.599 16.6112 65.5608 18.2954 65.0166 21.6119ZM9.82501 15.1246C12.372 14.9916 15.4659 15.39 17.2037 16.5816C18.0677 17.1733 18.6753 18.263 18.3235 19.5121C17.3206 23.0569 13.5771 27.3458 5.25837 30.6414C2.61326 31.6895 0.533475 32.0903 0.097012 31.809C-0.314204 31.5443 0.682173 29.7157 1.21139 28.7445L1.21147 28.7443L1.21163 28.744L1.21183 28.7437C1.28644 28.6068 1.35174 28.4869 1.40248 28.3909C2.73037 25.8766 4.38958 23.4283 6.007 21.1868C6.06349 21.1085 6.1229 21.0248 6.18486 20.9375L6.18498 20.9374C6.77652 20.104 7.60132 18.942 8.35497 19.0456C9.10055 19.1479 8.22719 20.6687 7.65293 21.6354C6.68792 23.2579 4.02975 27.7646 4.90659 28.0337C6.84509 28.6297 15.9407 22.4287 14.5995 18.9746C13.9778 17.372 10.0285 17.2192 7.54169 17.2192C7.34541 17.2192 7.10883 17.2264 6.85112 17.2343L6.85035 17.2343L6.85025 17.2343H6.85016H6.85007H6.84998H6.84989C5.62207 17.2718 3.91565 17.3238 3.8027 16.6824C3.65532 15.9662 7.55649 15.2448 9.82501 15.1246ZM43.2695 20.672C41.9928 19.7779 41.6408 18.4176 41.8206 17.2769C42.0807 15.6164 43.5029 14.1607 45.132 14.1607H52.462V15.683C52.3579 16.3713 51.9733 17.0616 51.2921 17.0616H45.7455C45.1939 17.0616 44.8776 17.2062 44.8331 17.5586C44.8044 17.7665 44.9008 17.9132 45.292 18.1938L50.1456 21.6422C51.1855 22.3788 51.7225 23.5289 51.4667 25.1352C51.1955 26.8449 49.8482 28.4508 47.1206 28.4508H40.8954V26.4709C41.001 25.8253 41.3129 25.5553 41.8772 25.5553H47.1898C48.1357 25.5553 48.4154 25.3344 48.4994 24.8019C48.5562 24.4162 48.3248 24.1909 47.8396 23.8602L43.2695 20.672ZM78.8424 26.1259H72.7735L74.8655 14.6525C74.9119 14.4193 74.7414 14.1607 74.4543 14.1607H71.7829L69.1747 28.4508H79.2323L79.4909 27.0169C79.605 26.3843 79.3941 26.1259 78.8424 26.1259ZM159.712 14.2489H160.416C160.545 14.2489 160.685 14.2663 160.805 14.3608C160.922 14.4477 160.984 14.612 160.981 14.747C160.981 15.0888 160.776 15.2649 160.776 15.2649L153.418 21.5066L158.928 27.4945C158.928 27.4945 159.14 27.7518 159.14 28.0118C159.14 28.1519 159.078 28.3135 158.954 28.4064C158.838 28.4898 158.707 28.5083 158.565 28.5146H157.869L152.049 22.1873L150.882 28.5083H149.314L151.971 14.2224H152.675C152.834 14.2224 152.997 14.2735 153.127 14.3769C153.252 14.462 153.398 14.6752 153.335 14.9845L152.362 20.539L159.712 14.2489ZM97.1026 14.1607H89.4137L89.3745 14.3893C89.1973 15.3617 89.2761 16.48 90.8127 16.48H96.5048C98.76 16.48 99.6234 18.1146 99.0681 21.1774C98.5567 23.9799 97.0395 26.1259 94.7446 26.1259H91.6543L93.1261 18.09H90.4975C90.144 18.09 89.893 18.3455 89.8595 18.5758L88.0544 28.4464H94.0787C98.5295 28.4464 101.631 26.3597 102.586 21.0721C103.336 17.017 101.639 14.1607 97.1026 14.1607ZM138.624 14.2224H142.299C144.467 14.2224 146.375 14.2555 147.485 15.5254C148.118 16.2534 148.164 17.5961 147.988 18.4176C147.767 19.4342 146.808 21.9772 143.204 22.3016L146.239 27.4945C146.239 27.4945 146.442 27.8095 146.442 28.0118C146.447 28.1519 146.385 28.3135 146.261 28.4064C146.143 28.4898 146.014 28.5146 145.871 28.5146H145.077L141.517 22.3858L138.653 22.3693L137.54 28.5146H135.969L138.624 14.2224ZM143.927 20.7153C143.054 20.9488 141.828 20.9919 140.556 20.9919C140.301 20.988 139.988 20.985 139.663 20.9819H139.662C139.41 20.9794 139.15 20.9769 138.905 20.9739L139.843 15.7725C140.001 15.7718 140.237 15.7697 140.517 15.7671C141.551 15.7577 143.194 15.7427 143.841 15.7768C144.169 15.794 144.462 15.8171 144.639 15.8521C145.314 15.9804 145.754 16.1118 146.039 16.3946C147.271 17.5673 146.166 20.1116 143.927 20.7153ZM162.843 17.5586C162.857 16.4902 163.146 14.231 165.901 14.2223H171.802V15.3051C171.807 15.481 171.623 15.7048 171.454 15.7335L171.463 15.7725L171.452 15.7335C171.408 15.7463 166.158 15.7537 166.152 15.7537C165.075 15.7537 164.414 16.4553 164.408 17.3333C164.414 17.8525 164.708 18.334 165.18 18.8005L168.988 22.5484C168.994 22.5484 170.355 23.6919 170.355 25.1728V25.1785C170.343 26.2443 170.049 28.5043 167.296 28.5146H161.461V27.4429L161.443 27.434H161.461C161.458 27.2563 161.631 27.0328 161.805 27.0008C161.837 26.9894 164.107 26.9856 165.65 26.9829H165.651H165.651H165.652H165.652C166.448 26.9816 167.051 26.9806 167.052 26.979C168.126 26.9836 168.792 26.2717 168.792 25.3992C168.792 24.8811 168.557 24.3339 168.08 23.868L164.064 19.9325C163.658 19.5774 162.843 18.6821 162.843 17.5586ZM86.4136 14.1607H83.74L81.1275 28.4464H84.3032L86.8257 14.6481C86.869 14.4193 86.6997 14.1607 86.4136 14.1607ZM130.08 14.1878V14.195C134.372 14.6939 135.65 18.5204 134.784 22.1817C133.821 26.2428 130.892 29.4487 126.221 29.0904C121.871 28.5849 120.631 24.7526 121.551 21.0965C122.558 17.0373 125.477 13.8316 130.08 14.1878ZM133.252 22.0581C132.262 26.2227 129.439 27.7707 126.785 27.6277L126.524 27.6144C123.954 27.2852 122.058 25.3028 123.067 21.2207C124.1 17.0574 127.096 15.511 129.719 15.654C132.322 15.9198 134.221 17.9758 133.252 22.0581ZM121.359 14.3499C121.492 14.452 121.557 14.6453 121.551 14.7868C121.551 14.9152 121.523 14.9804 121.485 15.0696L121.477 15.0888L115.967 27.486C115.684 28.133 115.14 28.5083 114.488 28.5083H113.456L111.866 20.7153L108.028 27.5511C107.849 27.8341 107.65 28.0681 107.414 28.2397C107.155 28.4277 106.84 28.5146 106.49 28.5083H105.276V14.2224H106.21C106.358 14.2224 106.512 14.2489 106.647 14.3608C106.789 14.4707 106.849 14.6699 106.849 14.8291L106.805 26.7222L111.182 19.0949H112.113C112.679 19.0633 113.151 19.4675 113.234 20.0581L114.681 26.7905L120.226 14.2224H120.948C121.089 14.2224 121.231 14.2483 121.359 14.3499Z" fill="#DA291C"/>
</svg>
